<svg width="52" height="53" viewBox="0 0 52 53" fill="none" xmlns="http://www.w3.org/2000/svg">
<path d="M4.052 26.8127L15.026 7.80518H36.9741L47.9481 26.8127L36.9741 45.8203H15.026L4.052 26.8127Z" fill="#2066ba"/>
<path d="M4.052 26.8127L15.026 7.80518M4.052 26.8127L15.026 45.8203M4.052 26.8127H12.4936M15.026 7.80518H36.9741M15.026 7.80518L19.2174 15.0649M36.9741 7.80518L47.9481 26.8127M36.9741 7.80518L32.7827 15.0649M47.9481 26.8127L36.9741 45.8203M47.9481 26.8127H39.5065M36.9741 45.8203H15.026M36.9741 45.8203L32.7827 38.5606M15.026 45.8203L19.2174 38.5606M19.2174 15.0649H32.7827M19.2174 15.0649L12.4936 26.8127M32.7827 15.0649L39.5065 26.8127M19.2174 38.5606H26.0001L32.7827 38.5606M19.2174 38.5606L12.4936 26.8127M32.7827 38.5606L39.5065 26.8127" stroke="#17191B" stroke-width="1.5"/>
<path fill-rule="evenodd" clip-rule="evenodd" d="M15.026 45.8203L19.2174 38.5606L12.4936 26.8127H4.052L15.026 45.8203Z" fill="#064ea4"/>
<path d="M4.052 26.8127L15.026 7.80518M4.052 26.8127L15.026 45.8203M4.052 26.8127H12.4936M15.026 7.80518H36.9741M15.026 7.80518L19.2174 15.0649M36.9741 7.80518L47.9481 26.8127M36.9741 7.80518L32.7827 15.0649M47.9481 26.8127L36.9741 45.8203M47.9481 26.8127H39.5065M36.9741 45.8203H15.026M36.9741 45.8203L32.7827 38.5606M15.026 45.8203L19.2174 38.5606M19.2174 15.0649H32.7827M19.2174 15.0649L12.4936 26.8127M32.7827 15.0649L39.5065 26.8127M19.2174 38.5606H26.0001L32.7827 38.5606M19.2174 38.5606L12.4936 26.8127M32.7827 38.5606L39.5065 26.8127" stroke="#17191B" stroke-width="1.5"/>
<path d="M47.9481 26.8127L36.9741 7.80518L32.7827 15.0649L39.5065 26.8127H47.9481Z" fill="#4989d6"/>
<path d="M4.052 26.8127L15.026 7.80518M4.052 26.8127L15.026 45.8203M4.052 26.8127H12.4936M15.026 7.80518H36.9741M15.026 7.80518L19.2174 15.0649M36.9741 7.80518L47.9481 26.8127M36.9741 7.80518L32.7827 15.0649M47.9481 26.8127L36.9741 45.8203M47.9481 26.8127H39.5065M36.9741 45.8203H15.026M36.9741 45.8203L32.7827 38.5606M15.026 45.8203L19.2174 38.5606M19.2174 15.0649H32.7827M19.2174 15.0649L12.4936 26.8127M32.7827 15.0649L39.5065 26.8127M19.2174 38.5606H26.0001L32.7827 38.5606M19.2174 38.5606L12.4936 26.8127M32.7827 38.5606L39.5065 26.8127" stroke="#17191B" stroke-width="1.5"/>
<path d="M32.7827 15.0649H19.2174L12.4936 26.8127L19.2174 38.5606H26.0001L32.7827 38.5606L39.5065 26.8127L32.7827 15.0649Z" fill="#064ea4"/>
<path d="M4.052 26.8127L15.026 7.80518M4.052 26.8127L15.026 45.8203M4.052 26.8127H12.4936M15.026 7.80518H36.9741M15.026 7.80518L19.2174 15.0649M36.9741 7.80518L47.9481 26.8127M36.9741 7.80518L32.7827 15.0649M47.9481 26.8127L36.9741 45.8203M47.9481 26.8127H39.5065M36.9741 45.8203H15.026M36.9741 45.8203L32.7827 38.5606M15.026 45.8203L19.2174 38.5606M19.2174 15.0649H32.7827M19.2174 15.0649L12.4936 26.8127M32.7827 15.0649L39.5065 26.8127M19.2174 38.5606H26.0001L32.7827 38.5606M19.2174 38.5606L12.4936 26.8127M32.7827 38.5606L39.5065 26.8127" stroke="#17191B" stroke-width="1.5"/>
<path d="M32.7827 15.0649H19.2174L12.4936 26.8127L19.2174 38.5606H26.0001L32.7827 38.5606L39.5065 26.8127L32.7827 15.0649Z" fill="#064ea4"/>
<path d="M4.052 26.8127L15.026 7.80518M4.052 26.8127L15.026 45.8203M4.052 26.8127H12.4936M15.026 7.80518H36.9741M15.026 7.80518L19.2174 15.0649M36.9741 7.80518L47.9481 26.8127M36.9741 7.80518L32.7827 15.0649M47.9481 26.8127L36.9741 45.8203M47.9481 26.8127H39.5065M36.9741 45.8203H15.026M36.9741 45.8203L32.7827 38.5606M15.026 45.8203L19.2174 38.5606M19.2174 15.0649H32.7827M19.2174 15.0649L12.4936 26.8127M32.7827 15.0649L39.5065 26.8127M19.2174 38.5606H26.0001L32.7827 38.5606M19.2174 38.5606L12.4936 26.8127M32.7827 38.5606L39.5065 26.8127" stroke="#17191B" stroke-width="1.5"/>
<path d="M18.7184 11.4812C18.8147 11.2192 19.1853 11.2192 19.2816 11.4812L20.0269 13.5098C20.0573 13.5924 20.1224 13.6575 20.2051 13.6879L22.2336 14.4332C22.4957 14.5295 22.4957 14.9002 22.2336 14.9964L20.2051 15.7418C20.1224 15.7721 20.0573 15.8373 20.0269 15.9199L19.2816 17.9485C19.1853 18.2105 18.8147 18.2105 18.7184 17.9485L17.9731 15.9199C17.9427 15.8373 17.8776 15.7721 17.7949 15.7418L15.7664 14.9964C15.5043 14.9002 15.5043 14.5295 15.7664 14.4333L17.7949 13.6879C17.8776 13.6575 17.9427 13.5924 17.9731 13.5098L18.7184 11.4812Z" fill="white"/>
<path d="M39.714 30.6185C39.8024 30.3392 40.1976 30.3392 40.286 30.6185L40.6743 31.8451C40.7037 31.9382 40.7766 32.0111 40.8697 32.0406L42.0963 32.4288C42.3756 32.5172 42.3756 32.9125 42.0963 33.0009L40.8697 33.3891C40.7766 33.4186 40.7037 33.4915 40.6743 33.5846L40.286 34.8112C40.1976 35.0905 39.8024 35.0905 39.714 34.8112L39.3257 33.5846C39.2963 33.4915 39.2234 33.4186 39.1303 33.3891L37.9037 33.0009C37.6244 32.9125 37.6244 32.5172 37.9037 32.4288L39.1303 32.0406C39.2234 32.0111 39.2963 31.9382 39.3257 31.8451L39.714 30.6185Z" fill="white"/>
<path d="M37 12.7148L39.5 17.2148M42 21.2148L40.8235 19.2148" stroke="white" stroke-width="1.5" stroke-linecap="round"/>
</svg>
