<svg width="52" height="53" viewBox="0 0 52 53" fill="none" xmlns="http://www.w3.org/2000/svg">
<path d="M41.8701 14.5592V38.8709L26.1688 51.0267L10.4675 38.8709V14.5592L26.1688 2.40332L41.8701 14.5592Z" fill="#fcdf69"/>
<path d="M26.1688 2.40332L10.4675 14.5592M26.1688 2.40332L41.8701 14.5592M26.1688 2.40332V11.5072M26.1688 51.0267L41.8701 38.8709M26.1688 51.0267L10.4675 38.8709M26.1688 51.0267V41.9228M41.8701 38.8709V14.5592M41.8701 38.8709L35.4675 34.6882M41.8701 14.5592L35.4675 18.7418M10.4675 14.5592V38.8709M10.4675 14.5592L16.8701 18.7418M10.4675 38.8709L16.8701 34.6882M26.1688 11.5072L16.8701 18.7418M26.1688 11.5072L35.4675 18.7418M26.1688 41.9228L16.8701 34.6882M26.1688 41.9228L35.4675 34.6882M16.8701 34.6882V18.7418M35.4675 34.6882L35.4675 18.7418" stroke="black" stroke-width="1.5"/>
<path d="M10.4675 38.8709L26.1688 51.0267V41.9228L16.8701 34.6882L10.4675 38.8709Z" fill="#f0d360"/>
<path d="M26.1688 2.40332L10.4675 14.5592M26.1688 2.40332L41.8701 14.5592M26.1688 2.40332V11.5072M26.1688 51.0267L41.8701 38.8709M26.1688 51.0267L10.4675 38.8709M26.1688 51.0267V41.9228M41.8701 38.8709V14.5592M41.8701 38.8709L35.4675 34.6882M41.8701 14.5592L35.4675 18.7418M10.4675 14.5592V38.8709M10.4675 14.5592L16.8701 18.7418M10.4675 38.8709L16.8701 34.6882M26.1688 11.5072L16.8701 18.7418M26.1688 11.5072L35.4675 18.7418M26.1688 41.9228L16.8701 34.6882M26.1688 41.9228L35.4675 34.6882M16.8701 34.6882V18.7418M35.4675 34.6882L35.4675 18.7418" stroke="black" stroke-width="1.5"/>
<path d="M26.1688 2.40332L10.4675 14.5592L16.8701 18.7418L26.1688 11.5072V2.40332Z" fill="#fae27f"/>
<path d="M41.8701 38.8709V14.5592L35.4675 18.7418L35.4675 34.6882L41.8701 38.8709Z" fill="#fae27f"/>
<path d="M26.1688 2.40332L10.4675 14.5592M26.1688 2.40332L41.8701 14.5592M26.1688 2.40332V11.5072M26.1688 51.0267L41.8701 38.8709M26.1688 51.0267L10.4675 38.8709M26.1688 51.0267V41.9228M41.8701 38.8709V14.5592M41.8701 38.8709L35.4675 34.6882M41.8701 14.5592L35.4675 18.7418M10.4675 14.5592V38.8709M10.4675 14.5592L16.8701 18.7418M10.4675 38.8709L16.8701 34.6882M26.1688 11.5072L16.8701 18.7418M26.1688 11.5072L35.4675 18.7418M26.1688 41.9228L16.8701 34.6882M26.1688 41.9228L35.4675 34.6882M16.8701 34.6882V18.7418M35.4675 34.6882L35.4675 18.7418" stroke="black" stroke-width="1.5"/>
<path fillRule="evenodd" clipRule="evenodd" d="M35.4675 34.6882L35.4675 18.7418L26.1688 11.5072L16.8701 18.7418V34.6882L26.1688 41.9228L35.4675 34.6882Z" fill="#f2de8d"/>
<path d="M26.1688 2.40332L10.4675 14.5592M26.1688 2.40332L41.8701 14.5592M26.1688 2.40332V11.5072M26.1688 51.0267L41.8701 38.8709M26.1688 51.0267L10.4675 38.8709M26.1688 51.0267V41.9228M41.8701 38.8709V14.5592M41.8701 38.8709L35.4675 34.6882M41.8701 14.5592L35.4675 18.7418M10.4675 14.5592V38.8709M10.4675 14.5592L16.8701 18.7418M10.4675 38.8709L16.8701 34.6882M26.1688 11.5072L16.8701 18.7418M26.1688 11.5072L35.4675 18.7418M26.1688 41.9228L16.8701 34.6882M26.1688 41.9228L35.4675 34.6882M16.8701 34.6882V18.7418M35.4675 34.6882L35.4675 18.7418" stroke="black" stroke-width="1.5"/>
<path d="M41.8701 14.5592L26.1688 2.40332V11.5072L35.4675 18.7418L41.8701 14.5592Z" fill="#edd880"/>
<path d="M26.1688 2.40332L10.4675 14.5592M26.1688 2.40332L41.8701 14.5592M26.1688 2.40332V11.5072M26.1688 51.0267L41.8701 38.8709M26.1688 51.0267L10.4675 38.8709M26.1688 51.0267V41.9228M41.8701 38.8709V14.5592M41.8701 38.8709L35.4675 34.6882M41.8701 14.5592L35.4675 18.7418M10.4675 14.5592V38.8709M10.4675 14.5592L16.8701 18.7418M10.4675 38.8709L16.8701 34.6882M26.1688 11.5072L16.8701 18.7418M26.1688 11.5072L35.4675 18.7418M26.1688 41.9228L16.8701 34.6882M26.1688 41.9228L35.4675 34.6882M16.8701 34.6882V18.7418M35.4675 34.6882L35.4675 18.7418" stroke="black" stroke-width="1.5"/>
<path d="M19.7184 34.4812C19.8147 34.2192 20.1853 34.2192 20.2816 34.4812L21.0269 36.5098C21.0573 36.5924 21.1224 36.6575 21.2051 36.6879L23.2336 37.4332C23.4957 37.5295 23.4957 37.9002 23.2336 37.9964L21.2051 38.7418C21.1224 38.7721 21.0573 38.8373 21.0269 38.9199L20.2816 40.9485C20.1853 41.2105 19.8147 41.2105 19.7184 40.9485L18.9731 38.9199C18.9427 38.8373 18.8776 38.7721 18.7949 38.7418L16.7664 37.9964C16.5043 37.9002 16.5043 37.5295 16.7664 37.4333L18.7949 36.6879C18.8776 36.6575 18.9427 36.5924 18.9731 36.5098L19.7184 34.4812Z" fill="white"/>
<path d="M20.714 11.6185C20.8024 11.3392 21.1976 11.3392 21.286 11.6185L21.6743 12.8451C21.7037 12.9382 21.7766 13.0111 21.8697 13.0406L23.0963 13.4288C23.3756 13.5172 23.3756 13.9125 23.0963 14.0009L21.8697 14.3891C21.7766 14.4186 21.7037 14.4915 21.6743 14.5846L21.286 15.8112C21.1976 16.0905 20.8024 16.0905 20.714 15.8112L20.3257 14.5846C20.2963 14.4915 20.2234 14.4186 20.1303 14.3891L18.9037 14.0009C18.6244 13.9125 18.6244 13.5172 18.9037 13.4288L20.1303 13.0406C20.2234 13.0111 20.2963 12.9382 20.3257 12.8451L20.714 11.6185Z" fill="white"/>
<path d="M29 7.71484L32.75 10.7148M36.5 13.7148L34.5 12.1148" stroke="white" strokeWidth="1.5" strokeLinecap="round"/>
</svg>
