<svg width="52" height="53" viewBox="0 0 52 53" fill="none" xmlns="http://www.w3.org/2000/svg">
<path d="M14.4229 5.10449H25.9999H37.5769L48.9609 17.6462L25.9999 48.325L3.03894 17.6462L14.4229 5.10449Z" fill="#f99d77"/>
<path d="M14.4229 5.10449H25.9999M14.4229 5.10449L3.03894 17.6462M14.4229 5.10449L12.8794 17.6462M37.5769 5.10449H25.9999M37.5769 5.10449L48.9609 17.6462M37.5769 5.10449L39.1204 17.6462M25.9999 48.325L48.9609 17.6462M25.9999 48.325L3.03894 17.6462M25.9999 48.325L39.1204 17.6462M25.9999 48.325L12.8794 17.6462M25.9999 5.10449L12.8794 17.6462M25.9999 5.10449L39.1204 17.6462M3.03894 17.6462H12.8794M48.9609 17.6462H39.1204M12.8794 17.6462H39.1204" stroke="black" stroke-width="1.5"/>
<path d="M14.4229 5.10449L3.03894 17.6462H12.8794L14.4229 5.10449Z" fill="#e09475"/>
<path d="M25.9999 5.10449H14.4229L12.8794 17.6462L25.9999 5.10449Z" fill="#e09475"/>
<path d="M37.5769 5.10449H25.9999L39.1204 17.6462L37.5769 5.10449Z" fill="#e09475"/>
<path d="M48.9609 17.6462L37.5769 5.10449L39.1204 17.6462H48.9609Z" fill="#e09475"/>
<path d="M14.4229 5.10449H25.9999M14.4229 5.10449L3.03894 17.6462M14.4229 5.10449L12.8794 17.6462M37.5769 5.10449H25.9999M37.5769 5.10449L48.9609 17.6462M37.5769 5.10449L39.1204 17.6462M25.9999 48.325L48.9609 17.6462M25.9999 48.325L3.03894 17.6462M25.9999 48.325L39.1204 17.6462M25.9999 48.325L12.8794 17.6462M25.9999 5.10449L12.8794 17.6462M25.9999 5.10449L39.1204 17.6462M3.03894 17.6462H12.8794M48.9609 17.6462H39.1204M12.8794 17.6462H39.1204" stroke="black" stroke-width="1.5"/>
<path d="M25.9999 5.10449H14.4229L12.8794 17.6462L25.9999 5.10449Z" fill="#f0a384"/>
<path d="M37.5769 5.10449H25.9999L39.1204 17.6462L37.5769 5.10449Z" fill="#f0a384"/>
<path d="M14.4229 5.10449H25.9999M14.4229 5.10449L3.03894 17.6462M14.4229 5.10449L12.8794 17.6462M37.5769 5.10449H25.9999M37.5769 5.10449L48.9609 17.6462M37.5769 5.10449L39.1204 17.6462M25.9999 48.325L48.9609 17.6462M25.9999 48.325L3.03894 17.6462M25.9999 48.325L39.1204 17.6462M25.9999 48.325L12.8794 17.6462M25.9999 5.10449L12.8794 17.6462M25.9999 5.10449L39.1204 17.6462M3.03894 17.6462H12.8794M48.9609 17.6462H39.1204M12.8794 17.6462H39.1204" stroke="black" stroke-width="1.5"/>
<path fillRule="evenodd" clipRule="evenodd" d="M25.9999 48.325L39.1204 17.6462H12.8794L25.9999 48.325Z" fill="#f29b77"/>
<path d="M12.8794 17.6462H39.1204L25.9999 5.10449L12.8794 17.6462Z" fill="#f29b77"/>
<path d="M14.4229 5.10449H25.9999M14.4229 5.10449L3.03894 17.6462M14.4229 5.10449L12.8794 17.6462M37.5769 5.10449H25.9999M37.5769 5.10449L48.9609 17.6462M37.5769 5.10449L39.1204 17.6462M25.9999 48.325L48.9609 17.6462M25.9999 48.325L3.03894 17.6462M25.9999 48.325L39.1204 17.6462M25.9999 48.325L12.8794 17.6462M25.9999 5.10449L12.8794 17.6462M25.9999 5.10449L39.1204 17.6462M3.03894 17.6462H12.8794M48.9609 17.6462H39.1204M12.8794 17.6462H39.1204" stroke="black" stroke-width="1.5"/>
<path d="M12.8794 17.6462H39.1204L25.9999 5.10449L12.8794 17.6462Z" fill="#f7976f"/>
<path d="M14.4229 5.10449H25.9999M14.4229 5.10449L3.03894 17.6462M14.4229 5.10449L12.8794 17.6462M37.5769 5.10449H25.9999M37.5769 5.10449L48.9609 17.6462M37.5769 5.10449L39.1204 17.6462M25.9999 48.325L48.9609 17.6462M25.9999 48.325L3.03894 17.6462M25.9999 48.325L39.1204 17.6462M25.9999 48.325L12.8794 17.6462M25.9999 5.10449L12.8794 17.6462M25.9999 5.10449L39.1204 17.6462M3.03894 17.6462H12.8794M48.9609 17.6462H39.1204M12.8794 17.6462H39.1204" stroke="black" stroke-width="1.5"/>
<path d="M26 8.21484L30 11.9482M33.5 15.2148L31.5 13.3482" stroke="white" strokeWidth="1.5" strokeLinecap="round"/>
<path d="M18.7184 21.4812C18.8147 21.2192 19.1853 21.2192 19.2816 21.4812L20.0269 23.5098C20.0573 23.5924 20.1224 23.6575 20.2051 23.6879L22.2336 24.4332C22.4957 24.5295 22.4957 24.9002 22.2336 24.9964L20.2051 25.7418C20.1224 25.7721 20.0573 25.8373 20.0269 25.9199L19.2816 27.9485C19.1853 28.2105 18.8147 28.2105 18.7184 27.9485L17.9731 25.9199C17.9427 25.8373 17.8776 25.7721 17.7949 25.7418L15.7664 24.9964C15.5043 24.9002 15.5043 24.5295 15.7664 24.4333L17.7949 23.6879C17.8776 23.6575 17.9427 23.5924 17.9731 23.5098L18.7184 21.4812Z" fill="white"/>
<path d="M11.714 16.6185C11.8024 16.3392 12.1976 16.3392 12.286 16.6185L12.6743 17.8451C12.7037 17.9382 12.7766 18.0111 12.8697 18.0406L14.0963 18.4288C14.3756 18.5172 14.3756 18.9125 14.0963 19.0009L12.8697 19.3891C12.7766 19.4186 12.7037 19.4915 12.6743 19.5846L12.286 20.8112C12.1976 21.0905 11.8024 21.0905 11.714 20.8112L11.3257 19.5846C11.2963 19.4915 11.2234 19.4186 11.1303 19.3891L9.90365 19.0009C9.62436 18.9125 9.62435 18.5172 9.90365 18.4288L11.1303 18.0406C11.2234 18.0111 11.2963 17.9382 11.3257 17.8451L11.714 16.6185Z" fill="white"/>
</svg>
